inDegrees=no
num_controls=7
num_derivatives=13
num_iterations=157
num_multipliers=7
num_parameters=0
num_slacks=7
num_states=26
objective=0.477033
objective_accelerations=0.044214
objective_balance=0.003614
objective_effort=0.040373
objective_height=0.383169
objective_ligament=0.005662
solver_duration=2149.070580
status=Solve_Succeeded
success=true
DataType=double
version=3
OpenSimVersion=4.5
endheader
time	/jointset/ground_pelvis/pelvis_tilt/value	/jointset/ground_pelvis/pelvis_tx/value	/jointset/ground_pelvis/pelvis_ty/value	/jointset/hip_l/hip_flexion_l/value	/jointset/hip_l/hip_adduction_l/value	/jointset/hip_l/hip_rotation_l/value	/jointset/back/lumbar_extension/value	/jointset/patellofemoral_l/patellar_flexion_l/value	/jointset/knee_l/knee_flexion_l/value	/jointset/knee_l/knee_adduction_l/value	/jointset/knee_l/knee_rotation_l/value	/jointset/ankle_l/ankle_angle_l/value	/jointset/subtalar_l/subtalar_angle_l/value	/jointset/ground_pelvis/pelvis_tilt/speed	/jointset/ground_pelvis/pelvis_tx/speed	/jointset/ground_pelvis/pelvis_ty/speed	/jointset/hip_l/hip_flexion_l/speed	/jointset/hip_l/hip_adduction_l/speed	/jointset/hip_l/hip_rotation_l/speed	/jointset/back/lumbar_extension/speed	/jointset/patellofemoral_l/patellar_flexion_l/speed	/jointset/knee_l/knee_flexion_l/speed	/jointset/knee_l/knee_adduction_l/speed	/jointset/knee_l/knee_rotation_l/speed	/jointset/ankle_l/ankle_angle_l/speed	/jointset/subtalar_l/subtalar_angle_l/speed	/forceset/tau_hip_flexion_l	/forceset/tau_hip_adduction_l	/forceset/tau_hip_rotation_l	/forceset/tau_knee_flexion_l	/forceset/tau_ankle_angle_l	/forceset/tau_subtalar_angle_l	/forceset/tau_lumbar_extension	lambda_cid13_p0	lambda_cid13_p1	lambda_cid13_p2	lambda_cid13_p3	lambda_cid13_p4	lambda_cid13_p5	lambda_cid14_p0	/jointset/ground_pelvis/pelvis_tilt/accel	/jointset/ground_pelvis/pelvis_tx/accel	/jointset/ground_pelvis/pelvis_ty/accel	/jointset/hip_l/hip_flexion_l/accel	/jointset/hip_l/hip_adduction_l/accel	/jointset/hip_l/hip_rotation_l/accel	/jointset/back/lumbar_extension/accel	/jointset/patellofemoral_l/patellar_flexion_l/accel	/jointset/knee_l/knee_flexion_l/accel	/jointset/knee_l/knee_adduction_l/accel	/jointset/knee_l/knee_rotation_l/accel	/jointset/ankle_l/ankle_angle_l/accel	/jointset/subtalar_l/subtalar_angle_l/accel	gamma_cid13_p0	gamma_cid13_p1	gamma_cid13_p2	gamma_cid13_p3	gamma_cid13_p4	gamma_cid13_p5	gamma_cid14_p0
0	-0.03681853550385954	0.05667559320873854	0.920341659689757	0.3085816938045678	-0.2956388446859895	-0.3015737051168346	-0.3879492264334186	0.2499269421184927	0.2499269421184919	-0.1745329251994329	-0.1744997636206021	-0.0008036623358878681	0.000438861100680931	0	0	0	0	0	0	0	0	0	0	0	0	0	0.07199884921358944	-0.05071708316571887	-0.01986593674658918	-0.243323137530074	0.1890152067395638	-0.01152063983415628	0.002691915905290481	17.40259925110682	-0.5963051052792053	2.556500136143684	9.670884743861123	-621.8847883405572	-76.3139307757323	-23.19579647768848	-0.9869964509574355	-2.028667104735253	-0.9239078800556088	9.28091774025158	-0.8452122955037853	3.329582898316068	-7.285860436156333	9.42714911401082	9.427149114006697	1.276860112825982	-0.08603065011462685	1.658952453942401	-0.3430315337925344	-3.557599935382994e-09	1.366189910464285e-07	7.713552916052718e-08	-1.010170999159324e-08	1.110079718457272e-07	-8.819231528054825e-09	-1.846661184630046e-11
0.01	-0.03686401779174426	0.0565758034564532	0.9202965132403829	0.3090338328346626	-0.2956811229370215	-0.3014065244237801	-0.3883117816496869	0.2503890201939195	0.2503890201939197	-0.174472450000138	-0.174500541093213	-0.0007224580157403585	0.0004210792601209714	-0.009039873543541053	-0.01981201299295412	-0.008991069132819177	0.08993983014367654	-0.008399502922959684	0.03328485216391928	-0.07198221925891918	0.09199962607509957	0.09199962607509149	0.01206225584217455	-0.0001421578777128659	0.01624572056076881	-0.003495267339176984	0.06618470764005842	-0.05619470679413638	-0.01916656400953829	-0.2390103118014399	0.1829247854588515	-0.002785239366310751	0.008329530203035909	15.65885169950199	-4.046263405808057	3.062531870245123	9.040896070944283	-624.7722922173085	-83.03215773551157	-23.20114690136267	-0.8540037617769489	-1.935579797363181	-0.8809511169982268	8.77731278195815	-0.8289308069887205	3.305238695457305	-7.07507907149658	9.023971006403457	9.023971006404247	1.165850239437181	0.0237007463193173	1.608113780678727	-0.3436399702672747	-3.291788570696317e-08	1.473510522403182e-07	1.436073009334843e-07	2.134066988506036e-08	-8.24528911470615e-09	-5.000633180258082e-08	-6.129728884995025e-09
0.02	-0.0369982030062103	0.05628227129408071	0.9201626071622597	0.3103707295922998	-0.2958057185205422	-0.3009110347450805	-0.3893782943386921	0.2517586148605274	0.2517586148605255	-0.1742923581329795	-0.174502338324015	-0.000478650105278245	0.0003701716189118418	-0.01774058531605711	-0.03874848201742967	-0.01775192574977312	0.1769515455086509	-0.01646346649778517	0.06566179712893636	-0.1407914945473094	0.1815033182359561	0.1815033182359376	0.02392218846530854	-0.0002039516386687146	0.03252071806292167	-0.006625160129833792	0.06037056606652266	-0.06167233042255546	-0.01846719127250086	-0.2346974860728083	0.1768343641781375	0.005950161101532726	0.0139671445007801	13.98796710760383	-7.507415089985707	3.568561117022493	8.297248047455847	-626.571171892106	-89.6595847166741	-23.21685249156449	-0.9191640967524081	-1.853558311039563	-0.8778653768825625	8.695294784511134	-0.7781044258769446	3.148001458535624	-6.651271642050535	8.927962331162226	8.927962331157632	1.236395469017876	-0.069957826763227	1.664807842219186	-0.2699566240885061	-6.227817147854334e-08	1.580831134342079e-07	2.100790727064414e-07	5.278304976171396e-08	-1.274985500751395e-07	-9.119343207710682e-08	-1.224099115814375e-08
0.03	-0.03721797119236169	0.05580348647005361	0.9199419591553211	0.3125638623700727	-0.2960092963788925	-0.3000968410636189	-0.391117653124316	0.254010909767868	0.2540109097678652	-0.1739949499591597	-0.1745048764023006	-7.24187533259186e-05	0.0002896028462629183	-0.02615998813263522	-0.0568888498911392	-0.02636338023621155	0.2612282380688612	-0.02420463135677586	0.09701829581924684	-0.2066397822984244	0.2685395678078724	0.2685395678078463	0.03547886613456169	-0.0002984624279285001	0.04868125703994548	-0.00945438067837269	0.05456872764944892	-0.05672851727890246	-0.01780986294330315	-0.2304017514101812	0.1733812884581238	0.004639928947372144	0.01923387822871471	12.78728362949264	-6.782454971610528	3.515011684416601	8.140579919627775	-627.9524097374336	-87.37856268610639	-23.24221914830516	-0.7953754095173912	-1.776320407419807	-0.8506671558015033	8.226830825498499	-0.7650526159927701	3.105652825709242	-6.485535299738242	8.529044429473243	8.529044429474951	1.103264493546933	0.02161390215231064	1.585033041733036	-0.2843216846551051	-8.489714155650377e-08	1.298839561830808e-07	2.780440595927976e-07	7.01269984258469e-08	-2.150971688969899e-07	-1.38714477978955e-07	-2.278252350247627e-08
0.04	-0.03752034281376121	0.05514688909091271	0.9196356202692625	0.3155863569401915	-0.2962888719058492	-0.298973846644968	-0.3935022803790706	0.2571210848027805	0.2571210848027783	-0.1735843828931139	-0.1745081972670476	0.0004940892116544315	0.0001817584852448971	-0.03426127236548418	-0.07431099304018912	-0.03489010157373221	0.3428239039779713	-0.03166300021907224	0.1274219445667764	-0.2698451883733865	0.3530793437504653	0.3530793437504537	0.04655396691053081	-0.0003605089308017849	0.06457604066853136	-0.01208027780365262	0.04876688923237494	-0.05178470413524919	-0.01715253461410142	-0.2261060167475545	0.1699282127381103	0.003329696793211873	0.02450061195664889	11.65404390757966	-6.066482057504538	3.459671927121979	7.870747725214874	-628.3362985142985	-85.01027197684232	-23.27639544214564	-0.8555403800065491	-1.70991336610766	-0.8609187470990086	8.159089454291072	-0.7215452265380816	2.957431469979448	-6.12269530681995	8.428667605297566	8.428667605297392	1.140080090361079	-0.06346496948593025	1.611656772531575	-0.2292919394367195	-1.073771154345958e-07	1.00882093397005e-07	3.460398344196364e-07	8.718025778662891e-08	-3.020431146850552e-07	-1.863661206978614e-07	-3.341540162147237e-08
0.05	-0.03790238011675389	0.05431995898293958	0.9192442959971331	0.3194114430026834	-0.2966413527137953	-0.2975521135098428	-0.3965046659747301	0.2610642620135234	0.2610642620135209	-0.1730651106896443	-0.1745123533755605	0.001218589779801853	4.90723400480065e-05	-0.04208872097340804	-0.0909250905111207	-0.0433693111199082	0.4217053965925824	-0.03876307459159795	0.1567581436744446	-0.3301155661747122	0.4351252593636776	0.4351252593635122	0.05723955130656454	-0.0004539468699559594	0.08031262770836278	-0.01438863463652063	0.04208720779244782	-0.04990848694459502	-0.01640413918979074	-0.2220439559839477	0.1659823527708976	0.005179363035441782	0.03061702476481183	10.45941675475054	-6.678812629673338	3.578072717826541	7.266051023668133	-629.2584163618066	-85.36038797569374	-23.31830198963763	-0.7377323288898819	-1.614649657289163	-0.8406669097591475	7.679480135038425	-0.6937835257641998	2.896684166586938	-5.901754329176482	8.027934453183814	8.027934453160977	1.023709607292104	0.0202891979936235	1.552940378936329	-0.2214153295626668	-1.23109872442628e-07	6.996169994739528e-08	3.844815084809749e-07	1.017545980900793e-07	-3.735444611986882e-07	-2.170662857309151e-07	-4.019833761031467e-08
0.06	-0.03836096895136767	0.05333138955631642	0.9187683306592656	0.3240107041853192	-0.2970627432620973	-0.2958420243765554	-0.4000942644108806	0.2658149745631683	0.2658149745631646	-0.1724408002436006	-0.1745169293826405	0.002100112360193047	-0.0001046589283477336	-0.04957157868951052	-0.1066388567701954	-0.05181831472137823	0.4976589280068845	-0.04544494829029903	0.1850931441991701	-0.3872877564715387	0.5145864115309199	0.5145864115306068	0.06756161542530163	-0.0004444886441588227	0.09598044311729007	-0.01628930244342173	0.03540752635251919	-0.04803226975394089	-0.01565574376547829	-0.2179818952203422	0.1620364928036846	0.007029029277671505	0.03673343757297399	9.325123569538302	-7.300018340597013	3.695959400640791	6.550599430911829	-629.2902836547936	-85.63329376968164	-23.36668522194052	-0.7866222016422472	-1.529847123736299	-0.854877558157819	7.573497214229273	-0.6379050917731571	2.757191753390901	-5.503057805920121	7.911714916103575	7.91171491610464	1.067376034901754	-0.04288573649567128	1.597902446350724	-0.1477541342433459	-1.38558536108763e-07	3.896052625932103e-08	4.21678799352187e-07	1.162245628542737e-07	-4.44395508795503e-07	-2.470527043350907e-07	-4.681917077262417e-08
